<mxfile host="app.diagrams.net" agent="Mozilla/5.0 (Windows NT 10.0; Win64; x64) AppleWebKit/537.36 (KHTML, like Gecko) Chrome/131.0.0.0 Safari/537.36" version="25.0.3">
  <diagram name="Page-1" id="UdahS-NeOfOKCmo9vLKs">
    <mxGraphModel dx="2463" dy="1854" grid="1" gridSize="10" guides="1" tooltips="1" connect="1" arrows="1" fold="1" page="1" pageScale="1" pageWidth="850" pageHeight="1100" math="0" shadow="0">
      <root>
        <mxCell id="0" />
        <mxCell id="1" parent="0" />
        <mxCell id="zdWbWiEEH44d5oleSq0m-9" value="BasePointCloudProcessor" style="swimlane;fontStyle=1;align=center;verticalAlign=top;childLayout=stackLayout;horizontal=1;startSize=26;horizontalStack=0;resizeParent=1;resizeParentMax=0;resizeLast=0;collapsible=1;marginBottom=0;whiteSpace=wrap;html=1;" parent="1" vertex="1">
          <mxGeometry x="-40" y="20" width="270" height="190" as="geometry" />
        </mxCell>
        <mxCell id="zdWbWiEEH44d5oleSq0m-10" value="# point_cloud: PointCloud" style="text;strokeColor=none;fillColor=none;align=left;verticalAlign=top;spacingLeft=4;spacingRight=4;overflow=hidden;rotatable=0;points=[[0,0.5],[1,0.5]];portConstraint=eastwest;whiteSpace=wrap;html=1;" parent="zdWbWiEEH44d5oleSq0m-9" vertex="1">
          <mxGeometry y="26" width="270" height="26" as="geometry" />
        </mxCell>
        <mxCell id="s1njBYuB7k8hsPoFxo6d-1" value="- metadata: dict[str, any]" style="text;strokeColor=none;fillColor=none;align=left;verticalAlign=top;spacingLeft=4;spacingRight=4;overflow=hidden;rotatable=0;points=[[0,0.5],[1,0.5]];portConstraint=eastwest;whiteSpace=wrap;html=1;" vertex="1" parent="zdWbWiEEH44d5oleSq0m-9">
          <mxGeometry y="52" width="270" height="26" as="geometry" />
        </mxCell>
        <mxCell id="zdWbWiEEH44d5oleSq0m-11" value="" style="line;strokeWidth=1;fillColor=none;align=left;verticalAlign=middle;spacingTop=-1;spacingLeft=3;spacingRight=3;rotatable=0;labelPosition=right;points=[];portConstraint=eastwest;strokeColor=inherit;" parent="zdWbWiEEH44d5oleSq0m-9" vertex="1">
          <mxGeometry y="78" width="270" height="8" as="geometry" />
        </mxCell>
        <mxCell id="zdWbWiEEH44d5oleSq0m-12" value="# validate_point_cloud() : None" style="text;strokeColor=none;fillColor=none;align=left;verticalAlign=top;spacingLeft=4;spacingRight=4;overflow=hidden;rotatable=0;points=[[0,0.5],[1,0.5]];portConstraint=eastwest;whiteSpace=wrap;html=1;" parent="zdWbWiEEH44d5oleSq0m-9" vertex="1">
          <mxGeometry y="86" width="270" height="26" as="geometry" />
        </mxCell>
        <mxCell id="s1njBYuB7k8hsPoFxo6d-4" value="+ add_metadata(key: str, value: any) : None" style="text;strokeColor=none;fillColor=none;align=left;verticalAlign=top;spacingLeft=4;spacingRight=4;overflow=hidden;rotatable=0;points=[[0,0.5],[1,0.5]];portConstraint=eastwest;whiteSpace=wrap;html=1;" vertex="1" parent="zdWbWiEEH44d5oleSq0m-9">
          <mxGeometry y="112" width="270" height="26" as="geometry" />
        </mxCell>
        <mxCell id="s1njBYuB7k8hsPoFxo6d-5" value="+ track_transformation(description: str) : None" style="text;strokeColor=none;fillColor=none;align=left;verticalAlign=top;spacingLeft=4;spacingRight=4;overflow=hidden;rotatable=0;points=[[0,0.5],[1,0.5]];portConstraint=eastwest;whiteSpace=wrap;html=1;" vertex="1" parent="zdWbWiEEH44d5oleSq0m-9">
          <mxGeometry y="138" width="270" height="26" as="geometry" />
        </mxCell>
        <mxCell id="s1njBYuB7k8hsPoFxo6d-3" value="+ process() : None" style="text;strokeColor=none;fillColor=none;align=left;verticalAlign=top;spacingLeft=4;spacingRight=4;overflow=hidden;rotatable=0;points=[[0,0.5],[1,0.5]];portConstraint=eastwest;whiteSpace=wrap;html=1;" vertex="1" parent="zdWbWiEEH44d5oleSq0m-9">
          <mxGeometry y="164" width="270" height="26" as="geometry" />
        </mxCell>
        <mxCell id="zdWbWiEEH44d5oleSq0m-13" value="PointCloudLoader" style="swimlane;fontStyle=1;align=center;verticalAlign=top;childLayout=stackLayout;horizontal=1;startSize=26;horizontalStack=0;resizeParent=1;resizeParentMax=0;resizeLast=0;collapsible=1;marginBottom=0;whiteSpace=wrap;html=1;" parent="1" vertex="1">
          <mxGeometry x="-240" y="-190" width="160" height="106" as="geometry" />
        </mxCell>
        <mxCell id="zdWbWiEEH44d5oleSq0m-14" value="# file_path: str" style="text;strokeColor=none;fillColor=none;align=left;verticalAlign=top;spacingLeft=4;spacingRight=4;overflow=hidden;rotatable=0;points=[[0,0.5],[1,0.5]];portConstraint=eastwest;whiteSpace=wrap;html=1;" parent="zdWbWiEEH44d5oleSq0m-13" vertex="1">
          <mxGeometry y="26" width="160" height="26" as="geometry" />
        </mxCell>
        <mxCell id="zdWbWiEEH44d5oleSq0m-15" value="" style="line;strokeWidth=1;fillColor=none;align=left;verticalAlign=middle;spacingTop=-1;spacingLeft=3;spacingRight=3;rotatable=0;labelPosition=right;points=[];portConstraint=eastwest;strokeColor=inherit;" parent="zdWbWiEEH44d5oleSq0m-13" vertex="1">
          <mxGeometry y="52" width="160" height="8" as="geometry" />
        </mxCell>
        <mxCell id="s1njBYuB7k8hsPoFxo6d-7" value="+ load_data() : PointCloud" style="text;strokeColor=none;fillColor=none;align=left;verticalAlign=top;spacingLeft=4;spacingRight=4;overflow=hidden;rotatable=0;points=[[0,0.5],[1,0.5]];portConstraint=eastwest;whiteSpace=wrap;html=1;" vertex="1" parent="zdWbWiEEH44d5oleSq0m-13">
          <mxGeometry y="60" width="160" height="20" as="geometry" />
        </mxCell>
        <mxCell id="zdWbWiEEH44d5oleSq0m-16" value="+ process() : PointCloud" style="text;strokeColor=none;fillColor=none;align=left;verticalAlign=top;spacingLeft=4;spacingRight=4;overflow=hidden;rotatable=0;points=[[0,0.5],[1,0.5]];portConstraint=eastwest;whiteSpace=wrap;html=1;" parent="zdWbWiEEH44d5oleSq0m-13" vertex="1">
          <mxGeometry y="80" width="160" height="26" as="geometry" />
        </mxCell>
        <mxCell id="zdWbWiEEH44d5oleSq0m-17" value="PointCloudPreprocessor" style="swimlane;fontStyle=1;align=center;verticalAlign=top;childLayout=stackLayout;horizontal=1;startSize=26;horizontalStack=0;resizeParent=1;resizeParentMax=0;resizeLast=0;collapsible=1;marginBottom=0;whiteSpace=wrap;html=1;" parent="1" vertex="1">
          <mxGeometry x="245" y="-193" width="360" height="112" as="geometry">
            <mxRectangle x="245" y="-193" width="170" height="30" as="alternateBounds" />
          </mxGeometry>
        </mxCell>
        <mxCell id="zdWbWiEEH44d5oleSq0m-19" value="" style="line;strokeWidth=1;fillColor=none;align=left;verticalAlign=middle;spacingTop=-1;spacingLeft=3;spacingRight=3;rotatable=0;labelPosition=right;points=[];portConstraint=eastwest;strokeColor=inherit;" parent="zdWbWiEEH44d5oleSq0m-17" vertex="1">
          <mxGeometry y="26" width="360" height="8" as="geometry" />
        </mxCell>
        <mxCell id="zdWbWiEEH44d5oleSq0m-20" value="+ remove_outliers(nb_neighbors: int, std_ratio: float) : PointCloud" style="text;strokeColor=none;fillColor=none;align=left;verticalAlign=top;spacingLeft=4;spacingRight=4;overflow=hidden;rotatable=0;points=[[0,0.5],[1,0.5]];portConstraint=eastwest;whiteSpace=wrap;html=1;" parent="zdWbWiEEH44d5oleSq0m-17" vertex="1">
          <mxGeometry y="34" width="360" height="26" as="geometry" />
        </mxCell>
        <mxCell id="s1njBYuB7k8hsPoFxo6d-9" value="+ downsample(voxel_size: float) : PointCloud" style="text;strokeColor=none;fillColor=none;align=left;verticalAlign=top;spacingLeft=4;spacingRight=4;overflow=hidden;rotatable=0;points=[[0,0.5],[1,0.5]];portConstraint=eastwest;whiteSpace=wrap;html=1;" vertex="1" parent="zdWbWiEEH44d5oleSq0m-17">
          <mxGeometry y="60" width="360" height="26" as="geometry" />
        </mxCell>
        <mxCell id="s1njBYuB7k8hsPoFxo6d-8" value="+ process() : PointCloud" style="text;strokeColor=none;fillColor=none;align=left;verticalAlign=top;spacingLeft=4;spacingRight=4;overflow=hidden;rotatable=0;points=[[0,0.5],[1,0.5]];portConstraint=eastwest;whiteSpace=wrap;html=1;" vertex="1" parent="zdWbWiEEH44d5oleSq0m-17">
          <mxGeometry y="86" width="360" height="26" as="geometry" />
        </mxCell>
        <mxCell id="zdWbWiEEH44d5oleSq0m-21" value="PointCloudSegmenter" style="swimlane;fontStyle=1;align=center;verticalAlign=top;childLayout=stackLayout;horizontal=1;startSize=26;horizontalStack=0;resizeParent=1;resizeParentMax=0;resizeLast=0;collapsible=1;marginBottom=0;whiteSpace=wrap;html=1;" parent="1" vertex="1">
          <mxGeometry x="-620" y="30" width="410" height="146" as="geometry" />
        </mxCell>
        <mxCell id="zdWbWiEEH44d5oleSq0m-23" value="" style="line;strokeWidth=1;fillColor=none;align=left;verticalAlign=middle;spacingTop=-1;spacingLeft=3;spacingRight=3;rotatable=0;labelPosition=right;points=[];portConstraint=eastwest;strokeColor=inherit;" parent="zdWbWiEEH44d5oleSq0m-21" vertex="1">
          <mxGeometry y="26" width="410" height="8" as="geometry" />
        </mxCell>
        <mxCell id="zdWbWiEEH44d5oleSq0m-24" value="+ polygon_filter(polygon_coords: list[tuple[float, float]]) : PointCloud" style="text;strokeColor=none;fillColor=none;align=left;verticalAlign=top;spacingLeft=4;spacingRight=4;overflow=hidden;rotatable=0;points=[[0,0.5],[1,0.5]];portConstraint=eastwest;whiteSpace=wrap;html=1;" parent="zdWbWiEEH44d5oleSq0m-21" vertex="1">
          <mxGeometry y="34" width="410" height="16" as="geometry" />
        </mxCell>
        <mxCell id="s1njBYuB7k8hsPoFxo6d-15" value="+ ground_removal(z_threshold: float) : PointCloud" style="text;strokeColor=none;fillColor=none;align=left;verticalAlign=top;spacingLeft=4;spacingRight=4;overflow=hidden;rotatable=0;points=[[0,0.5],[1,0.5]];portConstraint=eastwest;whiteSpace=wrap;html=1;" vertex="1" parent="zdWbWiEEH44d5oleSq0m-21">
          <mxGeometry y="50" width="410" height="20" as="geometry" />
        </mxCell>
        <mxCell id="s1njBYuB7k8hsPoFxo6d-13" value="+ ground_removal_ransac(distance_threshold: float, ransac_n: int, num_iterations: int) : PointCloud" style="text;strokeColor=none;fillColor=none;align=left;verticalAlign=top;spacingLeft=4;spacingRight=4;overflow=hidden;rotatable=0;points=[[0,0.5],[1,0.5]];portConstraint=eastwest;whiteSpace=wrap;html=1;" vertex="1" parent="zdWbWiEEH44d5oleSq0m-21">
          <mxGeometry y="70" width="410" height="34" as="geometry" />
        </mxCell>
        <mxCell id="s1njBYuB7k8hsPoFxo6d-12" value="+ preprocess_and_segment() : PointCloud" style="text;strokeColor=none;fillColor=none;align=left;verticalAlign=top;spacingLeft=4;spacingRight=4;overflow=hidden;rotatable=0;points=[[0,0.5],[1,0.5]];portConstraint=eastwest;whiteSpace=wrap;html=1;" vertex="1" parent="zdWbWiEEH44d5oleSq0m-21">
          <mxGeometry y="104" width="410" height="16" as="geometry" />
        </mxCell>
        <mxCell id="s1njBYuB7k8hsPoFxo6d-10" value="+ process() : PointCloud" style="text;strokeColor=none;fillColor=none;align=left;verticalAlign=top;spacingLeft=4;spacingRight=4;overflow=hidden;rotatable=0;points=[[0,0.5],[1,0.5]];portConstraint=eastwest;whiteSpace=wrap;html=1;" vertex="1" parent="zdWbWiEEH44d5oleSq0m-21">
          <mxGeometry y="120" width="410" height="26" as="geometry" />
        </mxCell>
        <mxCell id="zdWbWiEEH44d5oleSq0m-25" value="PointCloudClassifier" style="swimlane;fontStyle=1;align=center;verticalAlign=top;childLayout=stackLayout;horizontal=1;startSize=26;horizontalStack=0;resizeParent=1;resizeParentMax=0;resizeLast=0;collapsible=1;marginBottom=0;whiteSpace=wrap;html=1;" parent="1" vertex="1">
          <mxGeometry x="380" y="50" width="440" height="156" as="geometry" />
        </mxCell>
        <mxCell id="zdWbWiEEH44d5oleSq0m-27" value="" style="line;strokeWidth=1;fillColor=none;align=left;verticalAlign=middle;spacingTop=-1;spacingLeft=3;spacingRight=3;rotatable=0;labelPosition=right;points=[];portConstraint=eastwest;strokeColor=inherit;" parent="zdWbWiEEH44d5oleSq0m-25" vertex="1">
          <mxGeometry y="26" width="440" height="8" as="geometry" />
        </mxCell>
        <mxCell id="zdWbWiEEH44d5oleSq0m-28" value="+ preprocess() : None" style="text;strokeColor=none;fillColor=none;align=left;verticalAlign=top;spacingLeft=4;spacingRight=4;overflow=hidden;rotatable=0;points=[[0,0.5],[1,0.5]];portConstraint=eastwest;whiteSpace=wrap;html=1;" parent="zdWbWiEEH44d5oleSq0m-25" vertex="1">
          <mxGeometry y="34" width="440" height="16" as="geometry" />
        </mxCell>
        <mxCell id="s1njBYuB7k8hsPoFxo6d-19" value="+ detect_planes(distance_threshold: float, ransac_n: int, num_iterations: int, min_plane_points: int) : tuple[list[PointCloud], list[list[float]]]" style="text;strokeColor=none;fillColor=none;align=left;verticalAlign=top;spacingLeft=4;spacingRight=4;overflow=hidden;rotatable=0;points=[[0,0.5],[1,0.5]];portConstraint=eastwest;whiteSpace=wrap;html=1;" vertex="1" parent="zdWbWiEEH44d5oleSq0m-25">
          <mxGeometry y="50" width="440" height="40" as="geometry" />
        </mxCell>
        <mxCell id="s1njBYuB7k8hsPoFxo6d-18" value="+ classify_planes(planes: list[PointCloud], normals: list[list[float]]) : dict[str, list[PointCloud]]" style="text;strokeColor=none;fillColor=none;align=left;verticalAlign=top;spacingLeft=4;spacingRight=4;overflow=hidden;rotatable=0;points=[[0,0.5],[1,0.5]];portConstraint=eastwest;whiteSpace=wrap;html=1;" vertex="1" parent="zdWbWiEEH44d5oleSq0m-25">
          <mxGeometry y="90" width="440" height="40" as="geometry" />
        </mxCell>
        <mxCell id="s1njBYuB7k8hsPoFxo6d-16" value="+ process() : dict[str, list[PointCloud]]" style="text;strokeColor=none;fillColor=none;align=left;verticalAlign=top;spacingLeft=4;spacingRight=4;overflow=hidden;rotatable=0;points=[[0,0.5],[1,0.5]];portConstraint=eastwest;whiteSpace=wrap;html=1;" vertex="1" parent="zdWbWiEEH44d5oleSq0m-25">
          <mxGeometry y="130" width="440" height="26" as="geometry" />
        </mxCell>
        <mxCell id="zdWbWiEEH44d5oleSq0m-29" value="PointCloudVisualizer" style="swimlane;fontStyle=1;align=center;verticalAlign=top;childLayout=stackLayout;horizontal=1;startSize=26;horizontalStack=0;resizeParent=1;resizeParentMax=0;resizeLast=0;collapsible=1;marginBottom=0;whiteSpace=wrap;html=1;" parent="1" vertex="1">
          <mxGeometry x="-65" y="340" width="320" height="156" as="geometry" />
        </mxCell>
        <mxCell id="zdWbWiEEH44d5oleSq0m-31" value="" style="line;strokeWidth=1;fillColor=none;align=left;verticalAlign=middle;spacingTop=-1;spacingLeft=3;spacingRight=3;rotatable=0;labelPosition=right;points=[];portConstraint=eastwest;strokeColor=inherit;" parent="zdWbWiEEH44d5oleSq0m-29" vertex="1">
          <mxGeometry y="26" width="320" height="8" as="geometry" />
        </mxCell>
        <mxCell id="zdWbWiEEH44d5oleSq0m-32" value="+ prepare_classified_clouds(walls: list[PointCloud], roofs: list[PointCloud]) : PointCloud" style="text;strokeColor=none;fillColor=none;align=left;verticalAlign=top;spacingLeft=4;spacingRight=4;overflow=hidden;rotatable=0;points=[[0,0.5],[1,0.5]];portConstraint=eastwest;whiteSpace=wrap;html=1;" parent="zdWbWiEEH44d5oleSq0m-29" vertex="1">
          <mxGeometry y="34" width="320" height="36" as="geometry" />
        </mxCell>
        <mxCell id="s1njBYuB7k8hsPoFxo6d-22" value="+ preprocess_and_visualize() : None" style="text;strokeColor=none;fillColor=none;align=left;verticalAlign=top;spacingLeft=4;spacingRight=4;overflow=hidden;rotatable=0;points=[[0,0.5],[1,0.5]];portConstraint=eastwest;whiteSpace=wrap;html=1;" vertex="1" parent="zdWbWiEEH44d5oleSq0m-29">
          <mxGeometry y="70" width="320" height="26" as="geometry" />
        </mxCell>
        <mxCell id="s1njBYuB7k8hsPoFxo6d-21" value="+ visualize_classified_clouds(walls: list[PointCloud], roofs: list[PointCloud]) : None" style="text;strokeColor=none;fillColor=none;align=left;verticalAlign=top;spacingLeft=4;spacingRight=4;overflow=hidden;rotatable=0;points=[[0,0.5],[1,0.5]];portConstraint=eastwest;whiteSpace=wrap;html=1;" vertex="1" parent="zdWbWiEEH44d5oleSq0m-29">
          <mxGeometry y="96" width="320" height="34" as="geometry" />
        </mxCell>
        <mxCell id="s1njBYuB7k8hsPoFxo6d-20" value="+ process() : None" style="text;strokeColor=none;fillColor=none;align=left;verticalAlign=top;spacingLeft=4;spacingRight=4;overflow=hidden;rotatable=0;points=[[0,0.5],[1,0.5]];portConstraint=eastwest;whiteSpace=wrap;html=1;" vertex="1" parent="zdWbWiEEH44d5oleSq0m-29">
          <mxGeometry y="130" width="320" height="26" as="geometry" />
        </mxCell>
        <mxCell id="s1njBYuB7k8hsPoFxo6d-29" value="Extends" style="endArrow=block;endSize=16;endFill=0;html=1;rounded=0;exitX=1;exitY=0.5;exitDx=0;exitDy=0;entryX=0.25;entryY=0;entryDx=0;entryDy=0;" edge="1" parent="1" source="s1njBYuB7k8hsPoFxo6d-7" target="zdWbWiEEH44d5oleSq0m-9">
          <mxGeometry width="160" relative="1" as="geometry">
            <mxPoint x="-140" y="250" as="sourcePoint" />
            <mxPoint x="20" y="250" as="targetPoint" />
            <Array as="points">
              <mxPoint x="28" y="-120" />
            </Array>
          </mxGeometry>
        </mxCell>
        <mxCell id="s1njBYuB7k8hsPoFxo6d-30" value="Extends" style="endArrow=block;endSize=16;endFill=0;html=1;rounded=0;entryX=0.75;entryY=0;entryDx=0;entryDy=0;exitX=0;exitY=0.5;exitDx=0;exitDy=0;" edge="1" parent="1" source="s1njBYuB7k8hsPoFxo6d-9" target="zdWbWiEEH44d5oleSq0m-9">
          <mxGeometry width="160" relative="1" as="geometry">
            <mxPoint x="240" y="-120" as="sourcePoint" />
            <mxPoint x="410" y="230" as="targetPoint" />
            <Array as="points">
              <mxPoint x="163" y="-120" />
            </Array>
          </mxGeometry>
        </mxCell>
        <mxCell id="s1njBYuB7k8hsPoFxo6d-32" value="Extends" style="endArrow=block;endSize=16;endFill=0;html=1;rounded=0;exitX=1;exitY=0.5;exitDx=0;exitDy=0;entryX=0;entryY=0.5;entryDx=0;entryDy=0;" edge="1" parent="1" source="s1njBYuB7k8hsPoFxo6d-13" target="zdWbWiEEH44d5oleSq0m-12">
          <mxGeometry width="160" relative="1" as="geometry">
            <mxPoint x="-230" y="270" as="sourcePoint" />
            <mxPoint x="-70" y="270" as="targetPoint" />
          </mxGeometry>
        </mxCell>
        <mxCell id="s1njBYuB7k8hsPoFxo6d-33" value="Extends" style="endArrow=block;endSize=16;endFill=0;html=1;rounded=0;exitX=0;exitY=0.5;exitDx=0;exitDy=0;entryX=1;entryY=0.5;entryDx=0;entryDy=0;" edge="1" parent="1" source="s1njBYuB7k8hsPoFxo6d-19" target="zdWbWiEEH44d5oleSq0m-12">
          <mxGeometry width="160" relative="1" as="geometry">
            <mxPoint x="260" y="250" as="sourcePoint" />
            <mxPoint x="420" y="250" as="targetPoint" />
          </mxGeometry>
        </mxCell>
        <mxCell id="s1njBYuB7k8hsPoFxo6d-34" value="Extends" style="endArrow=block;endSize=16;endFill=0;html=1;rounded=0;exitX=0.5;exitY=0;exitDx=0;exitDy=0;" edge="1" parent="1" source="zdWbWiEEH44d5oleSq0m-29" target="s1njBYuB7k8hsPoFxo6d-3">
          <mxGeometry width="160" relative="1" as="geometry">
            <mxPoint x="90" y="310" as="sourcePoint" />
            <mxPoint x="250" y="310" as="targetPoint" />
          </mxGeometry>
        </mxCell>
        <mxCell id="s1njBYuB7k8hsPoFxo6d-36" value="" style="endArrow=open;html=1;endSize=12;startArrow=diamondThin;startSize=14;startFill=1;edgeStyle=orthogonalEdgeStyle;align=left;verticalAlign=bottom;rounded=0;exitX=0.25;exitY=0;exitDx=0;exitDy=0;entryX=0.5;entryY=1;entryDx=0;entryDy=0;" edge="1" parent="1" source="zdWbWiEEH44d5oleSq0m-25" target="zdWbWiEEH44d5oleSq0m-17">
          <mxGeometry x="-0.7959" y="40" relative="1" as="geometry">
            <mxPoint x="510" y="-20" as="sourcePoint" />
            <mxPoint x="540" y="-70" as="targetPoint" />
            <mxPoint as="offset" />
          </mxGeometry>
        </mxCell>
        <mxCell id="s1njBYuB7k8hsPoFxo6d-37" value="" style="endArrow=open;html=1;endSize=12;startArrow=diamondThin;startSize=14;startFill=1;edgeStyle=orthogonalEdgeStyle;align=left;verticalAlign=bottom;rounded=0;exitX=1;exitY=0.5;exitDx=0;exitDy=0;entryX=1;entryY=0.5;entryDx=0;entryDy=0;" edge="1" parent="1" source="s1njBYuB7k8hsPoFxo6d-22" target="s1njBYuB7k8hsPoFxo6d-9">
          <mxGeometry x="-0.9786" y="13" relative="1" as="geometry">
            <mxPoint x="320" y="380" as="sourcePoint" />
            <mxPoint x="480" y="380" as="targetPoint" />
            <Array as="points">
              <mxPoint x="860" y="423" />
              <mxPoint x="860" y="-120" />
            </Array>
            <mxPoint as="offset" />
          </mxGeometry>
        </mxCell>
        <mxCell id="s1njBYuB7k8hsPoFxo6d-39" value="" style="endArrow=open;html=1;endSize=12;startArrow=diamondThin;startSize=14;startFill=1;edgeStyle=orthogonalEdgeStyle;align=left;verticalAlign=bottom;rounded=0;exitX=0.75;exitY=0;exitDx=0;exitDy=0;entryX=0.25;entryY=0;entryDx=0;entryDy=0;" edge="1" parent="1" source="zdWbWiEEH44d5oleSq0m-21" target="zdWbWiEEH44d5oleSq0m-17">
          <mxGeometry x="-0.9788" y="-13" relative="1" as="geometry">
            <mxPoint x="-410" y="-40" as="sourcePoint" />
            <mxPoint x="-295" y="-120" as="targetPoint" />
            <Array as="points">
              <mxPoint x="-313" y="-230" />
              <mxPoint x="335" y="-230" />
            </Array>
            <mxPoint as="offset" />
          </mxGeometry>
        </mxCell>
        <mxCell id="s1njBYuB7k8hsPoFxo6d-40" value="&lt;p style=&quot;margin: 4px 0px 0px; text-align: center;&quot;&gt;__main.py__&lt;/p&gt;" style="verticalAlign=top;align=left;overflow=fill;html=1;whiteSpace=wrap;" vertex="1" parent="1">
          <mxGeometry x="-495" y="270" width="160" height="30" as="geometry" />
        </mxCell>
        <mxCell id="s1njBYuB7k8hsPoFxo6d-41" value="" style="endArrow=block;dashed=1;endFill=0;endSize=12;html=1;rounded=0;exitX=0;exitY=0.5;exitDx=0;exitDy=0;entryX=0;entryY=0.5;entryDx=0;entryDy=0;" edge="1" parent="1" source="s1njBYuB7k8hsPoFxo6d-40" target="zdWbWiEEH44d5oleSq0m-13">
          <mxGeometry width="160" relative="1" as="geometry">
            <mxPoint x="-510" y="250" as="sourcePoint" />
            <mxPoint x="-490" y="240" as="targetPoint" />
            <Array as="points">
              <mxPoint x="-720" y="285" />
              <mxPoint x="-720" y="-140" />
            </Array>
          </mxGeometry>
        </mxCell>
        <mxCell id="s1njBYuB7k8hsPoFxo6d-52" value="Uses" style="edgeLabel;html=1;align=center;verticalAlign=middle;resizable=0;points=[];" vertex="1" connectable="0" parent="s1njBYuB7k8hsPoFxo6d-41">
          <mxGeometry x="-0.7239" y="-3" relative="1" as="geometry">
            <mxPoint x="-1" as="offset" />
          </mxGeometry>
        </mxCell>
        <mxCell id="s1njBYuB7k8hsPoFxo6d-42" value="" style="endArrow=block;dashed=1;endFill=0;endSize=12;html=1;rounded=0;exitX=0.5;exitY=0;exitDx=0;exitDy=0;" edge="1" parent="1" source="s1njBYuB7k8hsPoFxo6d-40" target="zdWbWiEEH44d5oleSq0m-21">
          <mxGeometry width="160" relative="1" as="geometry">
            <mxPoint x="-610" y="230" as="sourcePoint" />
            <mxPoint x="-450" y="230" as="targetPoint" />
          </mxGeometry>
        </mxCell>
        <mxCell id="s1njBYuB7k8hsPoFxo6d-49" value="Uses" style="edgeLabel;html=1;align=center;verticalAlign=middle;resizable=0;points=[];" vertex="1" connectable="0" parent="s1njBYuB7k8hsPoFxo6d-42">
          <mxGeometry x="-0.0147" y="-3" relative="1" as="geometry">
            <mxPoint as="offset" />
          </mxGeometry>
        </mxCell>
        <mxCell id="s1njBYuB7k8hsPoFxo6d-43" value="" style="endArrow=block;dashed=1;endFill=0;endSize=12;html=1;rounded=0;exitX=0.5;exitY=1;exitDx=0;exitDy=0;" edge="1" parent="1" source="s1njBYuB7k8hsPoFxo6d-40" target="s1njBYuB7k8hsPoFxo6d-16">
          <mxGeometry width="160" relative="1" as="geometry">
            <mxPoint x="-290" y="270" as="sourcePoint" />
            <mxPoint x="-130" y="270" as="targetPoint" />
            <Array as="points">
              <mxPoint x="-415" y="550" />
              <mxPoint x="600" y="550" />
            </Array>
          </mxGeometry>
        </mxCell>
        <mxCell id="s1njBYuB7k8hsPoFxo6d-51" value="Uses" style="edgeLabel;html=1;align=center;verticalAlign=middle;resizable=0;points=[];" vertex="1" connectable="0" parent="s1njBYuB7k8hsPoFxo6d-43">
          <mxGeometry x="-0.808" y="-4" relative="1" as="geometry">
            <mxPoint y="1" as="offset" />
          </mxGeometry>
        </mxCell>
        <mxCell id="s1njBYuB7k8hsPoFxo6d-44" value="" style="endArrow=block;dashed=1;endFill=0;endSize=12;html=1;rounded=0;exitX=1;exitY=0.5;exitDx=0;exitDy=0;entryX=0;entryY=0.5;entryDx=0;entryDy=0;" edge="1" parent="1" source="s1njBYuB7k8hsPoFxo6d-40" target="s1njBYuB7k8hsPoFxo6d-22">
          <mxGeometry width="160" relative="1" as="geometry">
            <mxPoint x="-300" y="360" as="sourcePoint" />
            <mxPoint x="-140" y="360" as="targetPoint" />
            <Array as="points">
              <mxPoint x="-200" y="285" />
              <mxPoint x="-200" y="423" />
            </Array>
          </mxGeometry>
        </mxCell>
        <mxCell id="s1njBYuB7k8hsPoFxo6d-48" value="Uses" style="edgeLabel;html=1;align=center;verticalAlign=middle;resizable=0;points=[];" vertex="1" connectable="0" parent="s1njBYuB7k8hsPoFxo6d-44">
          <mxGeometry x="-0.224" y="-1" relative="1" as="geometry">
            <mxPoint as="offset" />
          </mxGeometry>
        </mxCell>
      </root>
    </mxGraphModel>
  </diagram>
</mxfile>
